<svg xmlns="http://www.w3.org/2000/svg" version="1.0" viewBox="2.56 16.89 130.85 30"><defs><clipPath id="a"><path d="M 2.566406 16.886719 L 23.566406 16.886719 L 23.566406 46.886719 L 2.566406 46.886719 Z M 2.566406 16.886719"/></clipPath></defs><g fill="#210D41"><g><g><path d="M 0.769531 0 L 2.875 0 L 2.875 -0.296875 C 2.453125 -0.992188 2.15625 -3.070312 2.15625 -6.339844 L 2.15625 -15.011719 L 2.425781 -15.011719 L 7.457031 -6.367188 C 9.265625 -3.097656 10.082031 -0.992188 10.058594 -0.296875 L 10.058594 0 L 13.972656 0 L 13.972656 -11 C 13.972656 -14.292969 14.320312 -16.375 14.789062 -17.042969 L 14.789062 -17.339844 L 12.660156 -17.339844 L 12.660156 -17.042969 C 13.105469 -16.351562 13.402344 -14.292969 13.402344 -11 L 13.402344 -2.007812 L 13.179688 -2.007812 L 7.953125 -11 C 6.167969 -14.292969 5.324219 -16.351562 5.351562 -17.042969 L 5.351562 -17.339844 L 0.816406 -17.339844 L 0.816406 -17.042969 C 1.261719 -16.398438 1.609375 -14.789062 1.609375 -12.484375 L 1.609375 -6.339844 C 1.609375 -3.070312 1.238281 -0.964844 0.769531 -0.296875 Z M 0.769531 0" transform="translate(26.364 43.5)"/></g></g></g><g fill="#210D41"><g><g><path d="M 5.574219 0.296875 C 7.878906 0.296875 9.6875 -0.992188 10.230469 -2.800781 L 10.480469 -2.800781 C 10.777344 -1.113281 11.59375 0.296875 13.351562 0.296875 C 14.886719 0.296875 15.53125 -1.140625 15.605469 -2.425781 L 15.359375 -2.425781 C 15.234375 -1.785156 14.9375 -1.261719 14.292969 -1.261719 C 13.425781 -1.261719 12.980469 -2.179688 12.78125 -3.394531 L 11.816406 -8.992188 C 11.296875 -11.941406 9.4375 -13.921875 6.117188 -13.921875 C 3.742188 -13.921875 1.90625 -12.683594 1.90625 -11.097656 C 1.90625 -9.859375 3.070312 -8.820312 4.558594 -8.820312 C 5.996094 -8.820312 6.835938 -9.761719 6.835938 -10.703125 C 6.835938 -10.972656 6.738281 -11.347656 6.589844 -11.542969 L 6.316406 -11.46875 C 6.640625 -10.601562 5.871094 -9.957031 4.855469 -9.957031 C 3.988281 -9.957031 3.269531 -10.554688 3.269531 -11.519531 C 3.269531 -12.585938 4.0625 -13.378906 5.648438 -13.378906 C 7.65625 -13.378906 8.769531 -12.015625 9.140625 -9.859375 L 9.710938 -6.566406 L 9.488281 -6.566406 C 8.71875 -7.605469 7.207031 -8.324219 5.574219 -8.324219 C 2.578125 -8.324219 0.644531 -6.515625 0.644531 -4.011719 C 0.644531 -1.511719 2.578125 0.296875 5.574219 0.296875 Z M 6.640625 -0.890625 C 4.535156 -0.890625 3.195312 -2.253906 3.195312 -4.136719 C 3.195312 -6.042969 4.535156 -7.40625 6.640625 -7.40625 C 8.621094 -7.40625 10.058594 -5.945312 10.058594 -4.136719 C 10.058594 -2.351562 8.621094 -0.890625 6.640625 -0.890625 Z M 6.640625 -0.890625" transform="translate(41.914 43.5)"/></g></g></g><g fill="#210D41"><g><g><path d="M 6.738281 0.296875 C 8.894531 0.296875 10.527344 -0.890625 10.527344 -2.75 C 10.527344 -4.460938 9.289062 -5.351562 8.027344 -5.351562 C 6.960938 -5.351562 6.070312 -4.535156 6.070312 -3.292969 C 6.070312 -2.824219 6.265625 -2.425781 6.316406 -2.328125 L 6.515625 -2.328125 C 6.316406 -3.417969 6.960938 -4.160156 7.777344 -4.160156 C 8.621094 -4.160156 9.316406 -3.445312 9.316406 -2.328125 C 9.316406 -1.015625 8.398438 -0.148438 7.160156 -0.148438 C 5.722656 -0.148438 4.730469 -1.535156 4.730469 -3.640625 L 4.730469 -13.105469 L 9.511719 -13.105469 L 9.511719 -13.625 L 4.707031 -13.625 L 4.707031 -17.242188 L 4.410156 -17.242188 C 4.0625 -15.160156 2.996094 -13.625 0.792969 -13.625 L -0.296875 -13.625 L -0.296875 -13.105469 L 2.128906 -13.105469 L 2.128906 -4.460938 C 2.128906 -1.113281 4.1875 0.296875 6.738281 0.296875 Z M 6.738281 0.296875" transform="translate(57.266 43.5)"/></g></g></g><g fill="#210D41"><g><g><path d="M 2.75 -15.730469 C 3.714844 -15.730469 4.507812 -16.472656 4.507812 -17.414062 C 4.507812 -18.355469 3.714844 -19.097656 2.75 -19.097656 C 1.808594 -19.097656 1.015625 -18.355469 1.015625 -17.414062 C 1.015625 -16.472656 1.808594 -15.730469 2.75 -15.730469 Z M 0.992188 0 L 4.878906 0 L 4.878906 -0.296875 C 4.460938 -0.992188 4.234375 -3.023438 4.234375 -6.292969 L 4.234375 -13.945312 L 3.964844 -13.945312 C 3.21875 -13.328125 2.03125 -13.03125 0.941406 -12.957031 L 0.941406 -12.707031 C 1.289062 -12.3125 1.609375 -11.347656 1.636719 -8.792969 L 1.636719 -6.292969 C 1.636719 -3.023438 1.386719 -0.992188 0.992188 -0.296875 Z M 0.992188 0" transform="translate(68.31 43.5)"/></g></g></g><g fill="#210D41"><g><g><path d="M 5.722656 0 L 7.628906 0 L 10.527344 -7.730469 C 11.691406 -10.949219 12.808594 -12.632812 13.527344 -13.328125 L 13.527344 -13.625 L 11.320312 -13.625 L 11.320312 -13.328125 C 11.519531 -12.609375 11.074219 -11.023438 9.957031 -7.730469 L 8.027344 -2.476562 L 7.777344 -2.476562 L 5.847656 -7.730469 C 4.730469 -11.023438 4.507812 -12.609375 4.707031 -13.328125 L 4.707031 -13.625 L 0.273438 -13.625 L 0.273438 -13.304688 C 1.164062 -12.609375 2.082031 -10.03125 2.949219 -7.730469 Z M 5.722656 0" transform="translate(73.956 43.5)"/></g></g></g><g fill="#210D41"><g><g><path d="M 8.992188 0.296875 C 12.363281 0.296875 14.566406 -1.488281 14.566406 -3.742188 C 14.566406 -5.324219 13.476562 -6.664062 11.71875 -6.664062 C 9.933594 -6.664062 9.015625 -5.449219 9.015625 -4.1875 C 9.015625 -3.863281 9.140625 -3.320312 9.363281 -3.070312 L 9.636719 -3.144531 C 9.289062 -4.039062 9.984375 -5.027344 11.246094 -5.027344 C 12.261719 -5.027344 13.054688 -4.285156 13.054688 -3.046875 C 13.054688 -1.460938 11.765625 -0.246094 9.511719 -0.246094 C 5.796875 -0.246094 3.269531 -3.171875 3.269531 -7.011719 L 3.269531 -7.382812 C 8.941406 -6.589844 14.292969 -7.257812 14.292969 -10.28125 C 14.292969 -12.1875 12.484375 -13.921875 8.449219 -13.921875 C 3.816406 -13.921875 0.644531 -10.925781 0.644531 -6.8125 C 0.644531 -2.527344 4.484375 0.296875 8.992188 0.296875 Z M 3.292969 -7.828125 C 3.59375 -11.121094 5.746094 -13.402344 8.570312 -13.402344 C 11.195312 -13.402344 12.1875 -11.988281 12.1875 -10.503906 C 12.1875 -8.125 8.199219 -7.308594 3.292969 -7.828125 Z M 3.292969 -7.828125" transform="translate(87.748 43.5)"/></g></g></g><g fill="#210D41"><g><g><path d="M 7.753906 0.296875 C 11.988281 0.296875 14.292969 -2.179688 14.292969 -6.042969 L 14.292969 -10.972656 C 14.292969 -14.292969 14.589844 -16.351562 15.035156 -17.042969 L 15.035156 -17.339844 L 13.03125 -17.339844 L 13.03125 -17.042969 C 13.476562 -16.351562 13.75 -14.292969 13.75 -10.972656 L 13.75 -6.042969 C 13.75 -2.847656 11.792969 -0.667969 8.96875 -0.667969 C 6.167969 -0.667969 4.382812 -2.847656 4.382812 -6.117188 L 4.382812 -10.972656 C 4.382812 -14.292969 4.65625 -16.351562 5.101562 -17.042969 L 5.101562 -17.339844 L 0.644531 -17.339844 L 0.644531 -17.042969 C 1.066406 -16.351562 1.363281 -14.292969 1.363281 -10.972656 L 1.363281 -6.117188 C 1.363281 -2.527344 3.890625 0.296875 7.753906 0.296875 Z M 7.753906 0.296875" transform="translate(112.51 43.5)"/></g></g></g><g fill="#210D41"><g><g><path d="M 0.769531 0 L 5.226562 0 L 5.226562 -0.296875 C 4.78125 -0.992188 4.507812 -3.070312 4.507812 -6.339844 L 4.507812 -10.972656 C 4.507812 -14.292969 4.78125 -16.351562 5.226562 -17.042969 L 5.226562 -17.339844 L 0.769531 -17.339844 L 0.769531 -17.042969 C 1.1875 -16.351562 1.488281 -14.292969 1.488281 -10.972656 L 1.488281 -6.339844 C 1.488281 -3.070312 1.1875 -0.992188 0.769531 -0.296875 Z M 0.769531 0" transform="translate(128.184 43.5)"/></g></g></g><g clip-path="url(#a)"><path fill="#8B82FA" d="M 21.78125 33.507812 C 22.90625 31.8125 23.566406 29.769531 23.566406 27.570312 C 23.566406 21.6875 18.863281 16.921875 13.066406 16.921875 C 7.265625 16.921875 2.5625 21.6875 2.5625 27.570312 C 2.5625 29.769531 3.222656 31.8125 4.351562 33.507812 L 13.066406 46.851562 L 21.78125 33.507812"/></g><path fill="#FFF" d="M 20.585938 27.570312 C 20.585938 31.78125 17.21875 35.195312 13.066406 35.195312 C 8.910156 35.195312 5.542969 31.78125 5.542969 27.570312 C 5.542969 23.359375 8.910156 19.945312 13.066406 19.945312 C 17.21875 19.945312 20.585938 23.359375 20.585938 27.570312"/></svg>